<svg id="visual" viewBox="0 0 960 540" width="960" height="540" xmlns="http://www.w3.org/2000/svg" xmlns:xlink="http://www.w3.org/1999/xlink" version="1.1"><rect x="0" y="0" width="960" height="540" fill="#041720"></rect><path d="M0 362L17.8 386.8C35.7 411.7 71.3 461.3 106.8 469.5C142.3 477.7 177.7 444.3 213.2 437.3C248.7 430.3 284.3 449.7 320 458C355.7 466.3 391.3 463.7 426.8 454.5C462.3 445.3 497.7 429.7 533.2 414.5C568.7 399.3 604.3 384.7 640 397.3C675.7 410 711.3 450 746.8 472.2C782.3 494.3 817.7 498.7 853.2 474.7C888.7 450.7 924.3 398.3 942.2 372.2L960 346L960 541L942.2 541C924.3 541 888.7 541 853.2 541C817.7 541 782.3 541 746.8 541C711.3 541 675.7 541 640 541C604.3 541 568.7 541 533.2 541C497.7 541 462.3 541 426.8 541C391.3 541 355.7 541 320 541C284.3 541 248.7 541 213.2 541C177.7 541 142.3 541 106.8 541C71.3 541 35.7 541 17.8 541L0 541Z" fill="#8000ff" stroke-linecap="round" stroke-linejoin="miter"></path></svg>